<svg width="25" height="24" viewBox="0 0 25 24" fill="none" xmlns="http://www.w3.org/2000/svg">
<path d="M11.6679 0.316116C11.8973 0.112473 12.1933 0 12.5 0C12.8067 0 13.1027 0.112473 13.3321 0.316116L24.6099 10.3409C24.8457 10.5649 24.9852 10.8717 24.9989 11.1966C25.0126 11.5214 24.8995 11.8389 24.6835 12.0819C24.4675 12.325 24.1654 12.4745 23.8412 12.499C23.5169 12.5234 23.1959 12.4209 22.9458 12.213L22.5248 11.8409V21.3018C22.5248 21.9665 22.2607 22.6039 21.7907 23.0739C21.3207 23.5439 20.6833 23.808 20.0186 23.808H4.98141C4.31672 23.808 3.67926 23.5439 3.20926 23.0739C2.73925 22.6039 2.47521 21.9665 2.47521 21.3018V11.8409L2.05417 12.213C1.80412 12.4209 1.48307 12.5234 1.15883 12.499C0.834585 12.4745 0.532549 12.325 0.316522 12.0819C0.100496 11.8389 -0.0126031 11.5214 0.00111707 11.1966C0.0148373 10.8717 0.154302 10.5649 0.39005 10.3409L11.6679 0.316116ZM4.98141 9.61035V21.3018H8.7407V15.0363C8.7407 14.7039 8.87273 14.3852 9.10773 14.1502C9.34273 13.9152 9.66146 13.7832 9.9938 13.7832H15.0062C15.3385 13.7832 15.6573 13.9152 15.8923 14.1502C16.1273 14.3852 16.2593 14.7039 16.2593 15.0363V21.3018H20.0186V9.6116L12.5 2.92883L4.98141 9.61035ZM13.7531 21.3018V16.2894H11.2469V21.3018H13.7531Z" fill="white"/>
</svg>
