<svg width="20" height="25" viewBox="0 0 20 25" fill="none" xmlns="http://www.w3.org/2000/svg">
<path d="M6.25 11.875C6.58152 11.875 6.89946 11.7433 7.13388 11.5089C7.3683 11.2744 7.5 10.9565 7.5 10.625C7.5 10.2935 7.3683 9.97552 7.13388 9.7411C6.89946 9.50668 6.58152 9.37498 6.25 9.37498C5.91848 9.37498 5.60054 9.50668 5.36612 9.7411C5.1317 9.97552 5 10.2935 5 10.625C5 10.9565 5.1317 11.2744 5.36612 11.5089C5.60054 11.7433 5.91848 11.875 6.25 11.875ZM8.75 10.625C8.75 10.2935 8.8817 9.97552 9.11612 9.7411C9.35054 9.50668 9.66848 9.37498 10 9.37498H13.75C14.0815 9.37498 14.3995 9.50668 14.6339 9.7411C14.8683 9.97552 15 10.2935 15 10.625C15 10.9565 14.8683 11.2744 14.6339 11.5089C14.3995 11.7433 14.0815 11.875 13.75 11.875H10C9.66848 11.875 9.35054 11.7433 9.11612 11.5089C8.8817 11.2744 8.75 10.9565 8.75 10.625ZM10 13.125C9.66848 13.125 9.35054 13.2567 9.11612 13.4911C8.8817 13.7255 8.75 14.0435 8.75 14.375C8.75 14.7065 8.8817 15.0244 9.11612 15.2589C9.35054 15.4933 9.66848 15.625 10 15.625H13.75C14.0815 15.625 14.3995 15.4933 14.6339 15.2589C14.8683 15.0244 15 14.7065 15 14.375C15 14.0435 14.8683 13.7255 14.6339 13.4911C14.3995 13.2567 14.0815 13.125 13.75 13.125H10ZM10 16.875C9.66848 16.875 9.35054 17.0067 9.11612 17.2411C8.8817 17.4755 8.75 17.7935 8.75 18.125C8.75 18.4565 8.8817 18.7744 9.11612 19.0089C9.35054 19.2433 9.66848 19.375 10 19.375H13.75C14.0815 19.375 14.3995 19.2433 14.6339 19.0089C14.8683 18.7744 15 18.4565 15 18.125C15 17.7935 14.8683 17.4755 14.6339 17.2411C14.3995 17.0067 14.0815 16.875 13.75 16.875H10ZM7.5 14.375C7.5 14.7065 7.3683 15.0244 7.13388 15.2589C6.89946 15.4933 6.58152 15.625 6.25 15.625C5.91848 15.625 5.60054 15.4933 5.36612 15.2589C5.1317 15.0244 5 14.7065 5 14.375C5 14.0435 5.1317 13.7255 5.36612 13.4911C5.60054 13.2567 5.91848 13.125 6.25 13.125C6.58152 13.125 6.89946 13.2567 7.13388 13.4911C7.3683 13.7255 7.5 14.0435 7.5 14.375ZM6.25 19.375C6.58152 19.375 6.89946 19.2433 7.13388 19.0089C7.3683 18.7744 7.5 18.4565 7.5 18.125C7.5 17.7935 7.3683 17.4755 7.13388 17.2411C6.89946 17.0067 6.58152 16.875 6.25 16.875C5.91848 16.875 5.60054 17.0067 5.36612 17.2411C5.1317 17.4755 5 17.7935 5 18.125C5 18.4565 5.1317 18.7744 5.36612 19.0089C5.60054 19.2433 5.91848 19.375 6.25 19.375Z" fill="white"/>
<path d="M6.25 0C5.91848 0 5.60054 0.131696 5.36612 0.366116C5.1317 0.600537 5 0.918479 5 1.25H2.5C1.83696 1.25 1.20107 1.51339 0.732233 1.98223C0.263392 2.45107 0 3.08696 0 3.75V22.5C0 23.163 0.263392 23.7989 0.732233 24.2678C1.20107 24.7366 1.83696 25 2.5 25H17.5C18.163 25 18.7989 24.7366 19.2678 24.2678C19.7366 23.7989 20 23.163 20 22.5V3.75C20 3.08696 19.7366 2.45107 19.2678 1.98223C18.7989 1.51339 18.163 1.25 17.5 1.25H15C15 0.918479 14.8683 0.600537 14.6339 0.366116C14.3995 0.131696 14.0815 0 13.75 0H6.25ZM15 3.75H17.5V22.5H2.5V3.75H5V5C5 5.33152 5.1317 5.64946 5.36612 5.88388C5.60054 6.1183 5.91848 6.25 6.25 6.25H13.75C14.0815 6.25 14.3995 6.1183 14.6339 5.88388C14.8683 5.64946 15 5.33152 15 5V3.75ZM7.5 3.75V2.5H12.5V3.75H7.5Z" fill="white"/>
</svg>
