<svg width="25" height="19" viewBox="0 0 25 19" fill="none" xmlns="http://www.w3.org/2000/svg">
<path d="M0 1.5625C0 1.1481 0.16462 0.750672 0.457646 0.457646C0.750672 0.16462 1.1481 0 1.5625 0H23.4375C23.8519 0 24.2493 0.16462 24.5424 0.457646C24.8354 0.750672 25 1.1481 25 1.5625C25 1.9769 24.8354 2.37433 24.5424 2.66735C24.2493 2.96038 23.8519 3.125 23.4375 3.125H1.5625C1.1481 3.125 0.750672 2.96038 0.457646 2.66735C0.16462 2.37433 0 1.9769 0 1.5625ZM0 9.375C0 8.9606 0.16462 8.56317 0.457646 8.27015C0.750672 7.97712 1.1481 7.8125 1.5625 7.8125H23.4375C23.8519 7.8125 24.2493 7.97712 24.5424 8.27015C24.8354 8.56317 25 8.9606 25 9.375C25 9.7894 24.8354 10.1868 24.5424 10.4799C24.2493 10.7729 23.8519 10.9375 23.4375 10.9375H1.5625C1.1481 10.9375 0.750672 10.7729 0.457646 10.4799C0.16462 10.1868 0 9.7894 0 9.375ZM0 17.1875C0 16.7731 0.16462 16.3757 0.457646 16.0826C0.750672 15.7896 1.1481 15.625 1.5625 15.625H23.4375C23.8519 15.625 24.2493 15.7896 24.5424 16.0826C24.8354 16.3757 25 16.7731 25 17.1875C25 17.6019 24.8354 17.9993 24.5424 18.2924C24.2493 18.5854 23.8519 18.75 23.4375 18.75H1.5625C1.1481 18.75 0.750672 18.5854 0.457646 18.2924C0.16462 17.9993 0 17.6019 0 17.1875Z" fill="white"/>
</svg>
