<svg width="25" height="25" viewBox="0 0 25 25" fill="none" xmlns="http://www.w3.org/2000/svg">
<path d="M12.5003 2.50412C12.1689 2.50412 11.8511 2.63576 11.6168 2.8701C11.3824 3.10443 11.2508 3.42225 11.2508 3.75364C11.2508 5.86784 8.69426 6.92743 7.19858 5.43175C7.08332 5.31241 6.94544 5.21722 6.79299 5.15173C6.64054 5.08625 6.47658 5.05178 6.31067 5.05034C6.14476 5.04889 5.98022 5.08051 5.82666 5.14334C5.6731 5.20616 5.53359 5.29894 5.41627 5.41627C5.29894 5.53359 5.20616 5.6731 5.14334 5.82666C5.08051 5.98022 5.04889 6.14476 5.05034 6.31067C5.05178 6.47658 5.08625 6.64054 5.15173 6.79299C5.21722 6.94544 5.31241 7.08332 5.43175 7.19858C6.92743 8.69426 5.86909 11.2508 3.75364 11.2508C3.42225 11.2508 3.10443 11.3824 2.8701 11.6168C2.63576 11.8511 2.50412 12.1689 2.50412 12.5003C2.50412 12.8317 2.63576 13.1495 2.8701 13.3839C3.10443 13.6182 3.42225 13.7498 3.75364 13.7498C5.86784 13.7498 6.92743 16.3064 5.43175 17.802C5.20414 18.0377 5.0782 18.3533 5.08104 18.681C5.08389 19.0086 5.2153 19.322 5.44697 19.5536C5.67865 19.7853 5.99204 19.9167 6.31966 19.9196C6.64729 19.9224 6.96292 19.7965 7.19858 19.5689C8.69426 18.0732 11.2508 19.1315 11.2508 21.247C11.2508 21.5784 11.3824 21.8962 11.6168 22.1305C11.8511 22.3649 12.1689 22.4965 12.5003 22.4965C12.8317 22.4965 13.1495 22.3649 13.3839 22.1305C13.6182 21.8962 13.7498 21.5784 13.7498 21.247C13.7498 19.1328 16.3064 18.0732 17.802 19.5689C17.9173 19.6882 18.0552 19.7834 18.2076 19.8489C18.3601 19.9144 18.524 19.9488 18.69 19.9503C18.8559 19.9517 19.0204 19.9201 19.174 19.8573C19.3275 19.7945 19.467 19.7017 19.5844 19.5844C19.7017 19.467 19.7945 19.3275 19.8573 19.174C19.9201 19.0204 19.9517 18.8559 19.9503 18.69C19.9488 18.524 19.9144 18.3601 19.8489 18.2076C19.7834 18.0552 19.6882 17.9173 19.5689 17.802C18.0732 16.3064 19.1315 13.7498 21.247 13.7498C21.5784 13.7498 21.8962 13.6182 22.1305 13.3839C22.3649 13.1495 22.4965 12.8317 22.4965 12.5003C22.4965 12.1689 22.3649 11.8511 22.1305 11.6168C21.8962 11.3824 21.5784 11.2508 21.247 11.2508C19.1328 11.2508 18.0732 8.69426 19.5689 7.19858C19.7965 6.96292 19.9224 6.64728 19.9196 6.31966C19.9167 5.99204 19.7853 5.67865 19.5537 5.44697C19.322 5.2153 19.0086 5.08389 18.681 5.08104C18.3533 5.0782 18.0377 5.20414 17.802 5.43175C16.3064 6.92743 13.7498 5.86909 13.7498 3.75364C13.7498 3.42225 13.6182 3.10443 13.3839 2.8701C13.1495 2.63576 12.8317 2.50412 12.5003 2.50412ZM8.76174 3.475C8.83084 2.5307 9.25472 1.64753 9.94823 1.00291C10.6417 0.358298 11.5535 0 12.5003 0C13.4471 0 14.3589 0.358298 15.0524 1.00291C15.7459 1.64753 16.1698 2.5307 16.2389 3.475C16.9559 2.85921 17.879 2.53699 18.8235 2.57285C19.7679 2.60871 20.664 3.00001 21.3322 3.6684C22.0004 4.33678 22.3915 5.23292 22.4271 6.17737C22.4628 7.12183 22.1403 8.04489 21.5244 8.76174C22.4687 8.83068 23.3519 9.25441 23.9967 9.94781C24.6414 10.6412 24.9998 11.5529 25 12.4997C25.0002 13.4466 24.642 14.3584 23.9975 15.052C23.353 15.7456 22.4699 16.1696 21.5256 16.2389C22.1414 16.9559 22.4636 17.879 22.4278 18.8235C22.3919 19.7679 22.0006 20.664 21.3322 21.3322C20.6638 22.0004 19.7677 22.3915 18.8233 22.4271C17.8788 22.4628 16.9557 22.1403 16.2389 21.5244C16.1698 22.4687 15.7459 23.3518 15.0524 23.9965C14.3589 24.6411 13.4471 24.9994 12.5003 24.9994C11.5535 24.9994 10.6417 24.6411 9.94823 23.9965C9.25472 23.3518 8.83084 22.4687 8.76174 21.5244C8.04489 22.1403 7.12183 22.4628 6.17738 22.4271C5.23292 22.3915 4.33678 22.0004 3.6684 21.3322C3.00001 20.664 2.60871 19.7679 2.57285 18.8235C2.53699 17.879 2.85921 16.9559 3.475 16.2389C2.5307 16.1698 1.64753 15.7459 1.00291 15.0524C0.358298 14.3589 0 13.4471 0 12.5003C0 11.5535 0.358298 10.6417 1.00291 9.94823C1.64753 9.25472 2.5307 8.83084 3.475 8.76174C2.85733 8.04502 2.53354 7.12124 2.56858 6.17574C2.60363 5.23024 2.99492 4.33297 3.66394 3.66394C4.33297 2.99492 5.23024 2.60363 6.17574 2.56858C7.12124 2.53354 8.04502 2.85733 8.76174 3.475Z" fill="white"/>
<path d="M12.5003 10.0012C11.8375 10.0012 11.2019 10.2645 10.7332 10.7332C10.2646 11.2018 10.0013 11.8375 10.0013 12.5003C10.0013 13.1631 10.2646 13.7987 10.7332 14.2674C11.2019 14.736 11.8375 14.9993 12.5003 14.9993C13.1631 14.9993 13.7987 14.736 14.2674 14.2674C14.7361 13.7987 14.9994 13.1631 14.9994 12.5003C14.9994 11.8375 14.7361 11.2018 14.2674 10.7332C13.7987 10.2645 13.1631 10.0012 12.5003 10.0012ZM8.96665 8.96663C9.42771 8.48926 9.97923 8.10849 10.589 7.84655C11.1988 7.5846 11.8547 7.44672 12.5183 7.44095C13.1819 7.43519 13.8401 7.56165 14.4543 7.81296C15.0686 8.06427 15.6266 8.43539 16.0959 8.90467C16.5652 9.37396 16.9363 9.93201 17.1876 10.5463C17.4389 11.1605 17.5654 11.8186 17.5596 12.4823C17.5539 13.1459 17.416 13.8018 17.154 14.4116C16.8921 15.0214 16.5113 15.5729 16.034 16.0339C15.0913 16.9444 13.8288 17.4482 12.5183 17.4368C11.2078 17.4254 9.95423 16.8997 9.02754 15.9731C8.10085 15.0464 7.57521 13.7928 7.56382 12.4823C7.55243 11.1718 8.05621 9.90928 8.96665 8.96663Z" fill="white"/>
</svg>
